<svg id="Capa_1" enable-background="new 0 0 512 512" height="512" viewBox="0 0 512 512" width="512" xmlns="http://www.w3.org/2000/svg"><g><g><path d="m279.536 350.5v138.5c0 8.56-6.94 15.5-15.5 15.5-8.56 0-13.587-9.852-13.587-18.413v-117.174l-1.913-18.413z" fill="#e3e0e4"/><path d="m271.536 502.57c-2.22 1.23-4.78 1.93-7.5 1.93-4.28 0-8.16-1.74-10.96-4.54s-4.54-6.68-4.54-10.96v-138.5h15v138.5c0 4.28 1.74 8.16 4.54 10.96 1.02 1.02 2.18 1.9 3.46 2.61z" fill="#c8c3ca"/><path d="m385.256 214.606c12.728-7.467 21.279-21.284 21.279-37.106 0-20.574-14.453-37.763-33.757-41.993 3.058-7.572 4.757-15.839 4.757-24.507 0-30.699-21.124-56.456-49.627-63.552-13.472-23.842-39.034-39.948-68.372-39.948-32.162 0-59.79 19.35-71.92 47.036-10.047-.036-34.2 20.236-43.295 44.923-1.541 4.183-3.041 13.25-1.667 17.741-24.127 15.464-34.443 42.015-34.443 72.8 0 27.03 11.267 47.63 30.605 63.587-.436 2.891-1.541 9.318-1.541 12.33 0 30.846 23.557 52.211 53.725 54.826 12.375 27.825 36.62 47.78 69.037 47.78 26.617 0 50.161-9.117 64.59-29.2 4.191.759 8.5 1.177 12.91 1.177 33.05 0 60.899-22.268 69.362-52.62 1.719-6.166-.999-12.606-.999-19.321-.002-21.453-17.526-50.957-20.644-53.953z" fill="#b2e5fb"/><g fill="#91dafa"><path d="m286.036 349.5c13.91 0 27.22-3.897 38.59-10.177-14.45 19.91-38.11 33.177-64.59 33.177-32.42 0-60.28-19.41-72.66-47.24-30.16-2.61-53.84-27.91-53.84-58.76 0-3.01.23-5.97.66-8.86-19.33-15.96-31.66-40.11-31.66-67.14 0-29.85 15.03-56.18 37.93-71.86-7.77 14.64-11.93 31.88-11.93 48.86 0 27.03 12.33 51.18 31.66 67.14-.43 2.89-.66 5.85-.66 8.86 0 30.85 23.68 56.15 53.84 58.76 12.38 27.83 40.24 47.24 72.66 47.24z"/><path d="m231.274 79.109c1.041 1.836-1.03 3.823-2.833 2.721-8.821-5.39-19.193-8.491-30.295-8.491-26.659 0-49.118 17.88-55.99 42.271-1.103-4.048-1.69-8.309-1.69-12.7 0-26.734 21.73-48.41 48.541-48.41 18.128 0 33.937 9.917 42.267 24.609z"/><path d="m409.505 266.369c.216 7.465-.708 14.69-2.609 21.511-5.2-40.04-39.44-70.97-80.91-70.97-16.617 0-32.076 4.965-44.966 13.502-1.827 1.21-3.989-1.007-2.742-2.81 13.299-19.234 35.719-31.682 61.011-31.081 38.038.904 69.115 31.815 70.216 69.848z"/></g></g><g><path d="m371.174 142.833c16.145 3.537 27.862 18.117 27.862 34.667 0 10.827-5.03 21.051-13.38 27.737-13.791-10.498-30.657-16.237-48.12-16.237-4.142 0-7.5 3.357-7.5 7.5s3.358 7.5 7.5 7.5c15.709 0 30.828 5.709 42.601 16.074.05.047.094.1.146.146 6.516 5.773 11.718 12.662 15.462 20.474 1.795 3.774 6.353 5.297 10.004 3.522 3.735-1.79 5.313-6.27 3.522-10.005-3.28-6.844-7.466-13.111-12.495-18.717 10.819-9.5 17.26-23.364 17.26-37.994 0-20.725-12.921-39.277-31.687-46.857 1.785-6.374 2.687-12.952 2.687-19.643 0-6.613-.886-13.171-2.633-19.489-1.104-3.992-5.235-6.338-9.228-5.229-3.992 1.104-6.333 5.235-5.229 9.228 1.387 5.017 2.09 10.229 2.09 15.491 0 7.479-1.417 14.778-4.211 21.698-1.788 4.139.922 9.275 5.349 10.134z"/><path d="m409.796 264.248c-4.145-.232-7.642 3.022-7.825 7.16-1.529 34.537-29.833 61.592-64.435 61.592-3.807 0-7.701-.355-11.573-1.057-2.846-.519-5.739.653-7.427 3.004-13.521 18.818-35.39 30.053-58.5 30.053-28.416 0-54.245-16.795-65.804-42.786-1.109-2.494-3.486-4.188-6.206-4.424-26.35-2.284-46.99-24.813-46.99-51.29-.361-4.919 2.575-11.006-2.063-14.648-18.39-15.175-28.937-37.537-28.937-61.352 0-6.605.811-13.169 2.41-19.509 1.013-4.017-1.422-8.094-5.438-9.106-4.019-1.013-8.093 1.423-9.106 5.438-1.901 7.538-2.865 15.336-2.865 23.177 0 26.924 11.338 52.282 31.251 70.215-.167 1.926-.251 3.86-.251 5.785 0 16.748 6.249 32.748 17.595 45.052 10.278 11.146 23.906 18.383 38.747 20.66 11.84 23.426 33.537 40.036 58.658 45.673v50.115c0 4.143 3.358 7.5 7.5 7.5s7.5-3.357 7.5-7.5v-48.103c5.333.268 10.749 0 16-.739v109.842c0 4.411-3.589 8-8 8s-8-3.589-8-8v-26c0-4.143-3.358-7.5-7.5-7.5s-7.5 3.357-7.5 7.5v26c0 12.683 10.318 23 23 23s23-10.317 23-23v-113.332c15.912-5.221 30.194-14.976 40.866-28.265 3.226.396 6.451.597 9.634.597 42.649 0 77.536-33.352 79.421-75.928.182-4.138-3.024-7.641-7.162-7.824z"/><path d="m115.501 144.177c3.277 2.479 7.997 1.851 10.503-1.476 5.728-7.601 12.691-14.057 20.696-19.187 2.831-1.814 4.108-5.292 3.125-8.508-1.188-3.883-1.79-7.923-1.79-12.007 0-22.329 17.48-40.324 39.795-40.967.21-.006.414-.039.621-.063.193.015.387.029.583.029 16.164 0 30.868 9.541 37.46 24.306 1.692 3.821 6.214 5.466 9.906 3.791 3.782-1.688 5.479-6.124 3.791-9.906-7.544-16.896-22.87-28.778-40.628-32.185 12.892-20.337 35.422-33.004 59.973-33.004 25.551 0 49.248 13.847 61.843 36.137 1.013 1.793 2.719 3.091 4.718 3.588 9.662 2.406 18.608 7.323 25.873 14.221 3.003 2.852 7.75 2.729 10.603-.274 2.852-3.004 2.729-7.751-.275-10.603-8.359-7.938-18.495-13.792-29.476-17.053-15.608-25.38-43.398-41.016-73.286-41.016-32.613 0-62.288 18.446-76.836 47.37-12.827 1.44-24.688 7.229-33.795 16.582-10.233 10.509-15.869 24.376-15.869 39.048 0 3.689.361 7.354 1.076 10.95-7.638 5.533-14.378 12.15-20.086 19.724-2.494 3.307-1.833 8.01 1.475 10.503z"/></g></g></svg>