<svg xmlns="http://www.w3.org/2000/svg" width="500" height="404" viewBox="0 0 500 404">
  <path class="cls-1" d="M32.051,0h435.9A32.051,32.051,0,0,1,500,32.051v0.225a32.051,32.051,0,0,1-32.051,32.051H32.051A32.051,32.051,0,0,1,0,32.276V32.051A32.051,32.051,0,0,1,32.051,0Z"/>
  <path id="Rectangle_3_copy" data-name="Rectangle 3 copy" class="cls-1" d="M31.851,179.756h436.3A31.851,31.851,0,0,1,500,211.607v0.024a31.851,31.851,0,0,1-31.851,31.851H31.851A31.851,31.851,0,0,1,0,211.631v-0.024A31.851,31.851,0,0,1,31.851,179.756Z"/>
  <path id="Rectangle_3_copy_2" data-name="Rectangle 3 copy 2" class="cls-1" d="M32.051,339.673h185.9A32.051,32.051,0,0,1,250,371.724v0.225A32.051,32.051,0,0,1,217.949,404H32.051A32.051,32.051,0,0,1,0,371.949v-0.225A32.051,32.051,0,0,1,32.051,339.673Z"/>
</svg>
